<svg width="853" height="476" viewBox="0 0 853 476" fill="none" xmlns="http://www.w3.org/2000/svg">
<g clip-path="url(#clip0)">
<path fill-rule="evenodd" clip-rule="evenodd" d="M618.041 161.864C582.711 123.03 546.185 82.8869 532.234 31.5989C518.166 -20.1921 530.635 -73.5465 542.678 -125.143C546.451 -141.271 550.27 -157.871 553.232 -174.124L550.639 -173.939C547.709 -157.943 543.94 -141.607 540.23 -125.728C528.099 -73.8159 515.563 -20.1419 529.816 32.2745C543.908 84.1369 580.652 124.524 616.188 163.575C624.738 172.976 633.581 182.687 641.824 192.282C695.23 254.476 707.52 307.203 678.327 349.006C649.7 390.012 594.228 407.856 553.702 420.89C508.195 435.528 454.299 451.005 399.615 454.903L399.604 454.903C379.538 456.333 360.102 456.117 341.868 454.259C275.299 447.463 235.629 406.147 223.948 331.568C219.455 270.393 239.085 211.489 258.055 154.513C260.103 148.398 262.141 142.291 264.141 136.19C286.168 69.0481 294.8 8.62465 291.28 -53.9665L290.693 -64.2408C289.029 -93.4434 287.255 -124.513 287.882 -155.213L285.349 -155.033C284.747 -124.334 286.519 -93.2895 288.184 -64.087L288.77 -53.8227C292.265 8.43936 283.675 68.5652 261.748 135.393C259.746 141.483 257.71 147.588 255.671 153.706C236.62 210.917 216.911 270.073 221.459 331.856C233.337 407.829 273.768 449.861 341.607 456.786C359.999 458.658 379.572 458.877 399.785 457.437L399.796 457.436C454.748 453.52 508.82 437.978 554.475 423.294C595.335 410.164 651.277 392.163 680.386 350.464C710.334 307.589 697.99 253.813 643.731 190.628C635.455 180.999 626.612 171.276 618.041 161.864" fill="#A796D0"/>
<path fill-rule="evenodd" clip-rule="evenodd" d="M529.893 145.752C515.589 132.147 500.807 118.074 488.063 103.428C463.655 75.3929 450.626 50.5483 447.049 25.2486C443.124 -2.53269 452.514 -29.5857 461.601 -55.7639C463.828 -62.1504 466.122 -68.7631 468.146 -75.2103C475.074 -97.1815 486.735 -134.298 488.387 -169.503L485.863 -169.323C484.182 -134.558 472.598 -97.7389 465.755 -75.9823C463.728 -69.572 461.444 -62.9729 459.231 -56.5975C450.041 -30.1442 440.546 -2.79009 444.553 25.6119C448.205 51.4176 461.424 76.6768 486.162 105.093C498.984 119.831 513.822 133.937 528.169 147.586C557.551 175.551 587.944 204.469 604.462 241.412C629.126 296.573 592.249 340.273 549.511 362.789C513.315 381.852 469.456 394.44 429.19 397.309C386.548 400.348 311.136 394.316 285.168 319.962C277.257 277.816 284.014 231.465 305.235 182.199C311.766 167.036 319.785 151.791 327.523 137.056C341.78 109.923 356.522 81.8642 363.452 52.0491C371.985 15.3497 364.751 -22.4767 357.75 -59.0466C352.421 -86.9483 346.9 -115.804 348.418 -143.961C348.687 -148.948 349.303 -154.229 350.212 -159.655L347.644 -159.472C346.761 -154.159 346.161 -149 345.899 -144.099C344.368 -115.623 349.922 -86.6219 355.289 -58.5633C362.232 -22.2601 369.413 15.3024 361 51.465C354.145 80.969 339.477 108.877 325.295 135.869C317.537 150.643 309.497 165.938 302.925 181.189C281.492 230.935 274.685 277.779 282.755 320.61C309.315 396.747 386.023 402.93 429.37 399.841L429.383 399.84C469.977 396.947 514.184 384.264 550.674 365.032C594.426 341.99 632.143 297.13 606.754 240.38C590.023 202.974 559.457 173.884 529.893 145.752" fill="#A796D0"/>
<path fill-rule="evenodd" clip-rule="evenodd" d="M427.566 188.903C407.866 190.307 389.147 201.367 376.188 219.254C362.53 238.107 357.44 261.993 362.555 283.13C374.386 315.353 412.443 327.51 444.891 325.198C444.904 325.197 444.904 325.197 444.904 325.197C478.157 322.827 504.526 306.434 513.716 282.403C518.777 269.157 517.774 255.228 510.707 241.021C497.874 215.184 469.858 197.097 449.245 191.212C442.077 189.164 434.775 188.389 427.566 188.903ZM445.085 327.728C445.085 327.728 445.085 327.728 445.072 327.729C411.685 330.096 372.481 317.459 360.148 283.863C354.812 261.872 360.066 237.206 374.16 217.76C387.554 199.268 406.943 187.838 427.387 186.381C434.888 185.846 442.471 186.652 449.929 188.776C471.053 194.809 499.788 213.37 512.961 239.881C520.253 254.55 521.322 269.562 516.057 283.314C506.515 308.262 479.325 325.288 445.085 327.728V327.728Z" fill="#A796D0"/>
<path fill-rule="evenodd" clip-rule="evenodd" d="M746.64 198.173C747.918 199.871 749.205 201.545 750.502 203.226C791.563 256.232 849.078 298.253 921.436 328.129C1004.04 362.248 1064.64 357.779 1101.51 314.896C1148.43 248.124 1218.01 119.334 1156.13 7.9204C1152.22 0.89924 1147.77 -5.94337 1142.91 -12.3989C1107.17 -59.8762 1050.37 -85.6082 994.297 -106.352C975.755 -113.21 956.942 -120.577 938.773 -127.703C892.063 -146.025 843.792 -164.974 794.512 -177.232C791.137 -178.058 787.643 -178.958 784.018 -179.884C739.037 -191.335 677.432 -207.031 639.977 -177.523C592.124 -139.799 621.856 -62.0603 641.517 -10.6103C643.232 -6.18148 644.847 -1.96531 646.308 1.96693C666.102 55.2567 698.018 133.58 746.64 198.173ZM1144.94 -13.9264C1144.94 -13.9264 1144.93 -13.936 1144.94 -13.9264C1149.87 -7.37266 1154.39 -0.442962 1158.34 6.68252C1220.9 119.287 1150.83 249.082 1103.52 316.413C1065.75 360.351 1004.19 365.039 920.449 330.473C847.683 300.419 789.821 258.138 748.497 204.782C697.571 139.035 664.304 57.6989 643.932 2.8665C642.469 -1.06334 640.859 -5.2715 639.178 -9.70115C619.24 -61.8437 589.114 -140.638 638.428 -179.498C676.857 -209.79 739.165 -193.909 784.653 -182.315C788.281 -181.403 791.762 -180.519 795.13 -179.687C844.576 -167.392 892.929 -148.417 939.713 -130.063C957.888 -122.929 976.659 -115.567 995.173 -108.714C1051.62 -87.8525 1108.81 -61.9207 1144.94 -13.9264V-13.9264Z" fill="#A796D0"/>
<path fill-rule="evenodd" clip-rule="evenodd" d="M782.646 157.107C823.44 211.302 893.977 267.374 969.599 262.216C996.3 260.375 1022.13 248.568 1042.29 228.96C1083.17 187.589 1105.82 134.651 1104.42 83.7552C1103.63 54.5242 1094.12 27.6412 1076.19 3.8246C1076.19 3.81661 1076.19 3.8166 1076.19 3.8166C1060.42 -17.1238 1038.43 -35.4192 1010.83 -50.5652C958.284 -79.3691 890.122 -103.11 823.768 -115.669C762.6 -127.226 724.458 -116.589 710.369 -84.0423C696.306 -51.5276 705.703 -11.276 716.766 23.7906C728.08 59.7208 744.054 95.3211 764.252 129.624C769.676 138.861 775.869 148.105 782.646 157.107ZM1078.22 2.28904C1078.22 2.28904 1078.22 2.28905 1078.22 2.29704C1096.47 26.5427 1106.14 53.9178 1106.95 83.6564C1108.38 135.244 1085.46 188.862 1044.06 230.745C1023.44 250.798 997.066 262.856 969.751 264.73C893.135 269.948 821.811 213.355 780.619 158.633C773.784 149.553 767.531 140.232 762.052 130.925C741.768 96.4661 725.707 60.6808 714.35 24.5709C703.16 -10.9636 693.66 -51.751 708.054 -85.0403C722.471 -118.348 762.653 -129.782 824.26 -118.142C890.858 -105.541 959.294 -81.7189 1012.05 -52.777C1039.98 -37.4539 1062.24 -18.9334 1078.22 2.28904V2.28904Z" fill="#A796D0"/>
<path fill-rule="evenodd" clip-rule="evenodd" d="M169.063 487.936C137.962 469.643 121.366 450.47 116.854 427.593C111.46 400.297 121.104 372.656 130.422 345.951C131.453 343.027 132.466 340.121 133.458 337.214C161.493 255.169 162.74 186.664 137.26 127.789C112.644 70.8939 65.2297 32.99 19.3763 -3.65912C-27.2343 -40.9106 -75.43 -79.4249 -99.4776 -137.863C-104.445 -149.916 -108.521 -162.363 -111.983 -175L-112.578 -167.895C-109.492 -157.371 -105.964 -147.005 -101.802 -136.881C-77.5133 -77.8334 -29.0495 -39.129 17.799 -1.66191C63.4245 34.7955 110.585 72.4875 134.958 128.801C160.17 187.071 158.901 254.972 131.077 336.402C130.088 339.29 129.072 342.185 128.057 345.11C119.058 370.899 108.856 400.098 114.375 428.077C120.513 459.169 147.804 478.356 167.789 490.107C204.905 511.904 244.503 528.751 284.305 543.067L294.207 543.897C251.496 528.926 208.828 511.28 169.063 487.936" fill="#A796D0"/>
<path fill-rule="evenodd" clip-rule="evenodd" d="M53.9399 146.604C33.4785 91.8429 -11.0755 54.1788 -54.1565 17.7621C-78.016 -2.41685 -102.323 -22.9776 -122.749 -46.5936L-123.038 -43.1378C-102.846 -20.1313 -79.0989 -0.0339884 -55.7747 19.6836C-12.9366 55.9094 31.3573 93.361 51.5876 147.49C93.467 259.581 -25.3556 349.579 -103.983 409.128L-113.523 416.396C-131.315 429.917 -149.025 444.337 -165.27 460.567L-165.6 464.503C-148.875 447.511 -130.5 432.464 -112.014 418.409L-102.476 411.171C-23.2465 351.15 96.4786 260.466 53.9399 146.604" fill="#A796D0"/>
</g>
<defs>
<clipPath id="clip0">
<rect width="853" height="476" fill="white"/>
</clipPath>
</defs>
</svg>
